<svg width="189" height="39" viewBox="0 0 189 39" fill="none" xmlns="http://www.w3.org/2000/svg">
<g filter="url(#filter0_d_68_1043)">
<path d="M4 0H160.348V30.7826H9.00001C6.23859 30.7826 4 28.544 4 25.7826V0Z" fill="#20556B" shape-rendering="crispEdges"/>
<path d="M27.5397 16.5325C27.5397 16.8326 27.5029 17.1116 27.4292 17.3696C27.3607 17.6276 27.2607 17.8619 27.1291 18.0725C26.9975 18.2831 26.8369 18.47 26.6473 18.6332C26.4578 18.7964 26.2419 18.9359 25.9998 19.0518C25.7628 19.1623 25.5048 19.2466 25.2258 19.3045C24.9468 19.3624 24.623 19.3914 24.2544 19.3914H21.6088C21.514 19.3914 21.4166 19.3571 21.3166 19.2887C21.2165 19.215 21.1665 19.0834 21.1665 18.8938V9.66963C21.1665 9.4801 21.2165 9.35111 21.3166 9.28266C21.4166 9.20895 21.514 9.1721 21.6088 9.1721H23.8043C24.3992 9.1721 24.881 9.23264 25.2495 9.35374C25.618 9.47483 25.9208 9.64857 26.1577 9.87497C26.3999 10.0961 26.5789 10.3672 26.6947 10.6884C26.8158 11.0043 26.8764 11.357 26.8764 11.7467C26.8764 11.9888 26.8474 12.2205 26.7895 12.4416C26.7368 12.6628 26.6552 12.8681 26.5447 13.0576C26.4341 13.2472 26.2946 13.4183 26.1261 13.571C25.9629 13.7236 25.7681 13.8526 25.5417 13.9579C25.8155 14.0106 26.0735 14.1106 26.3156 14.258C26.5578 14.4002 26.7684 14.5818 26.9474 14.803C27.1317 15.0241 27.2765 15.2821 27.3818 15.5769C27.4871 15.8665 27.5397 16.185 27.5397 16.5325ZM25.8497 11.8098C25.8497 11.5413 25.8128 11.2991 25.7391 11.0833C25.6654 10.8621 25.547 10.6752 25.3838 10.5226C25.2258 10.3646 25.0178 10.2435 24.7599 10.1593C24.5019 10.075 24.157 10.0329 23.7253 10.0329H22.13V13.6973H23.8832C24.2676 13.6973 24.5782 13.6473 24.8151 13.5473C25.0521 13.442 25.2469 13.3024 25.3995 13.1287C25.5522 12.955 25.6654 12.7549 25.7391 12.5285C25.8128 12.2968 25.8497 12.0573 25.8497 11.8098ZM26.5131 16.6115C26.5131 16.2745 26.4578 15.977 26.3472 15.7191C26.2419 15.4611 26.084 15.2452 25.8734 15.0715C25.6681 14.8977 25.4127 14.7661 25.1073 14.6766C24.802 14.5871 24.4229 14.5423 23.9701 14.5423H22.13V18.5305H24.3571C24.6835 18.5305 24.9705 18.4911 25.2179 18.4121C25.4706 18.3278 25.6918 18.2067 25.8813 18.0488C26.0761 17.8856 26.2288 17.6855 26.3393 17.4486C26.4552 17.2064 26.5131 16.9274 26.5131 16.6115ZM35.4767 15.2926C35.4767 15.4821 35.4266 15.6138 35.3266 15.6875C35.2266 15.7559 35.1292 15.7901 35.0344 15.7901H30.1617C30.1617 16.2324 30.2038 16.6325 30.2881 16.9905C30.3776 17.3486 30.5223 17.6566 30.7224 17.9145C30.9225 18.1673 31.1831 18.3621 31.5043 18.4989C31.8254 18.6358 32.2203 18.7043 32.6889 18.7043C33.0206 18.7043 33.318 18.6753 33.5813 18.6174C33.8445 18.5595 34.0709 18.4963 34.2605 18.4279C34.4553 18.3542 34.6132 18.2884 34.7343 18.2304C34.8607 18.1725 34.9502 18.1436 35.0028 18.1436C35.0344 18.1436 35.0634 18.1515 35.0897 18.1673C35.116 18.1831 35.1371 18.2094 35.1529 18.2462C35.1687 18.2778 35.1792 18.3199 35.1845 18.3726C35.195 18.4252 35.2002 18.4911 35.2002 18.57C35.2002 18.6069 35.1976 18.6437 35.1923 18.6806C35.1871 18.7122 35.1792 18.7438 35.1687 18.7754C35.1634 18.8017 35.1529 18.828 35.1371 18.8543C35.1213 18.8807 35.1002 18.907 35.0739 18.9333C35.0476 18.9596 34.966 19.007 34.8291 19.0755C34.6922 19.1386 34.5132 19.2045 34.292 19.2729C34.0709 19.3361 33.8129 19.394 33.5181 19.4466C33.2285 19.4993 32.9153 19.5256 32.5783 19.5256C32.0255 19.5256 31.5358 19.444 31.1094 19.2808C30.6829 19.1123 30.3249 18.8675 30.0353 18.5463C29.7458 18.2199 29.5246 17.8171 29.3719 17.338C29.2245 16.8589 29.1508 16.3035 29.1508 15.6717C29.1508 15.0662 29.2272 14.5239 29.3798 14.0448C29.5378 13.5657 29.7616 13.1603 30.0511 12.8286C30.3407 12.4916 30.6882 12.2363 31.0936 12.0626C31.5043 11.8835 31.9597 11.794 32.4598 11.794C32.9969 11.794 33.4549 11.8835 33.834 12.0626C34.2131 12.2416 34.5237 12.4837 34.7659 12.7891C35.0133 13.0892 35.1923 13.4393 35.3029 13.8395C35.4187 14.2396 35.4767 14.6608 35.4767 15.1031V15.2926ZM34.5053 15.0162C34.5211 14.258 34.3473 13.6657 33.984 13.2393C33.6208 12.8128 33.0916 12.5996 32.3967 12.5996C32.0386 12.5996 31.7227 12.668 31.449 12.8049C31.1805 12.9365 30.9514 13.1129 30.7619 13.334C30.5776 13.5552 30.4355 13.8131 30.3354 14.108C30.2354 14.3976 30.1775 14.7003 30.1617 15.0162H34.5053ZM43.0898 19.2176C43.0898 19.2545 43.0819 19.2861 43.0661 19.3124C43.0503 19.3387 43.024 19.3624 42.9871 19.3835C42.9502 19.3993 42.9002 19.4124 42.837 19.4229C42.7739 19.4335 42.6923 19.4387 42.5922 19.4387C42.4869 19.4387 42.4001 19.4335 42.3316 19.4229C42.2632 19.4177 42.2026 19.4072 42.15 19.3914C42.1026 19.3756 42.0605 19.3545 42.0236 19.3282C41.992 19.3019 41.9604 19.2703 41.9288 19.2334L38.5803 15.1741V19.2334C38.5803 19.265 38.5724 19.294 38.5566 19.3203C38.5409 19.3466 38.5145 19.3677 38.4777 19.3835C38.4461 19.3993 38.3987 19.4124 38.3355 19.4229C38.2776 19.4335 38.2013 19.4387 38.1065 19.4387C38.017 19.4387 37.9406 19.4335 37.8775 19.4229C37.8196 19.4124 37.7722 19.3993 37.7353 19.3835C37.6985 19.3677 37.6721 19.3466 37.6563 19.3203C37.6458 19.294 37.6405 19.265 37.6405 19.2334V8.58769C37.6405 8.5561 37.6458 8.52714 37.6563 8.50082C37.6721 8.47449 37.6985 8.45343 37.7353 8.43764C37.7722 8.41658 37.8196 8.40342 37.8775 8.39815C37.9406 8.38762 38.017 8.38236 38.1065 8.38236C38.2013 8.38236 38.2776 8.38762 38.3355 8.39815C38.3987 8.40342 38.4461 8.41658 38.4777 8.43764C38.5145 8.45343 38.5409 8.47449 38.5566 8.50082C38.5724 8.52714 38.5803 8.5561 38.5803 8.58769V15.1583L41.5893 12.1178C41.6314 12.0705 41.6735 12.0336 41.7156 12.0073C41.763 11.9757 41.813 11.952 41.8657 11.9362C41.9183 11.9151 41.9789 11.902 42.0473 11.8967C42.1158 11.8862 42.1947 11.8809 42.2842 11.8809C42.3737 11.8809 42.4501 11.8835 42.5133 11.8888C42.5817 11.8941 42.637 11.9046 42.6791 11.9204C42.7212 11.9362 42.7528 11.9573 42.7739 11.9836C42.7949 12.0046 42.8055 12.0336 42.8055 12.0705C42.8055 12.1231 42.7897 12.1757 42.7581 12.2284C42.7265 12.2758 42.6712 12.339 42.5922 12.4179L39.7334 15.1189L42.9081 18.9096C42.9766 18.9886 43.024 19.0491 43.0503 19.0913C43.0766 19.1334 43.0898 19.1755 43.0898 19.2176ZM45.7196 19.2334C45.7196 19.265 45.7117 19.294 45.6959 19.3203C45.6801 19.3466 45.6538 19.3677 45.6169 19.3835C45.5854 19.3993 45.538 19.4124 45.4748 19.4229C45.4169 19.4335 45.3405 19.4387 45.2458 19.4387C45.1563 19.4387 45.0799 19.4335 45.0167 19.4229C44.9588 19.4124 44.9114 19.3993 44.8746 19.3835C44.8377 19.3677 44.8114 19.3466 44.7956 19.3203C44.7851 19.294 44.7798 19.265 44.7798 19.2334V12.0862C44.7798 12.0547 44.7851 12.0257 44.7956 11.9994C44.8114 11.973 44.8377 11.952 44.8746 11.9362C44.9114 11.9151 44.9588 11.902 45.0167 11.8967C45.0799 11.8862 45.1563 11.8809 45.2458 11.8809C45.3405 11.8809 45.4169 11.8862 45.4748 11.8967C45.538 11.902 45.5854 11.9151 45.6169 11.9362C45.6538 11.952 45.6801 11.973 45.6959 11.9994C45.7117 12.0257 45.7196 12.0547 45.7196 12.0862V19.2334ZM45.8618 9.67753C45.8618 9.93025 45.817 10.1014 45.7275 10.1909C45.638 10.2804 45.4748 10.3251 45.2379 10.3251C45.0062 10.3251 44.8456 10.283 44.7561 10.1988C44.6719 10.1093 44.6298 9.93815 44.6298 9.68543C44.6298 9.43271 44.6745 9.2616 44.764 9.1721C44.8535 9.08259 45.0167 9.03784 45.2537 9.03784C45.4853 9.03784 45.6433 9.08259 45.7275 9.1721C45.817 9.25634 45.8618 9.42481 45.8618 9.67753ZM49.4314 19.5967C49.4314 20.1074 49.3945 20.5181 49.3208 20.8287C49.2524 21.1393 49.1392 21.4026 48.9812 21.6184C48.8286 21.8343 48.6259 21.9975 48.3731 22.1081C48.1257 22.2186 47.8203 22.2739 47.457 22.2739C47.3202 22.2739 47.1991 22.2634 47.0938 22.2423C46.9937 22.2265 46.9147 22.2081 46.8568 22.187C46.7989 22.166 46.7594 22.1397 46.7384 22.1081C46.712 22.0817 46.6963 22.0502 46.691 22.0133C46.6805 21.9817 46.6752 21.9501 46.6752 21.9185C46.6699 21.8869 46.6673 21.8501 46.6673 21.808C46.6673 21.7395 46.6726 21.679 46.6831 21.6263C46.6884 21.5789 46.6989 21.5395 46.7147 21.5079C46.7305 21.4763 46.7515 21.4526 46.7779 21.4368C46.7989 21.421 46.8252 21.4131 46.8568 21.4131C46.8884 21.4131 46.9516 21.4184 47.0464 21.4289C47.1464 21.4447 47.2675 21.4526 47.4097 21.4526C47.6045 21.4526 47.7703 21.4236 47.9072 21.3657C48.0441 21.3078 48.1546 21.2104 48.2389 21.0735C48.3284 20.9419 48.3916 20.7681 48.4284 20.5523C48.4705 20.3364 48.4916 20.0179 48.4916 19.5967V12.0862C48.4916 12.0547 48.4995 12.0257 48.5153 11.9994C48.5311 11.973 48.5548 11.952 48.5864 11.9362C48.6232 11.9151 48.6706 11.902 48.7285 11.8967C48.7917 11.8862 48.8707 11.8809 48.9654 11.8809C49.055 11.8809 49.1287 11.8862 49.1866 11.8967C49.2498 11.902 49.2971 11.9151 49.3287 11.9362C49.3656 11.952 49.3919 11.973 49.4077 11.9994C49.4235 12.0257 49.4314 12.0547 49.4314 12.0862V19.5967ZM49.5814 9.67753C49.5814 9.93025 49.5367 10.1014 49.4472 10.1909C49.3577 10.2804 49.1945 10.3251 48.9575 10.3251C48.7259 10.3251 48.5653 10.283 48.4758 10.1988C48.3916 10.1093 48.3494 9.93815 48.3494 9.68543C48.3494 9.43271 48.3942 9.2616 48.4837 9.1721C48.5732 9.08259 48.7364 9.03784 48.9733 9.03784C49.205 9.03784 49.3629 9.08259 49.4472 9.1721C49.5367 9.25634 49.5814 9.42481 49.5814 9.67753ZM57.5262 19.2176C57.5262 19.2545 57.5184 19.2861 57.5026 19.3124C57.4868 19.3387 57.4604 19.3624 57.4236 19.3835C57.3867 19.3993 57.3367 19.4124 57.2735 19.4229C57.2104 19.4335 57.1287 19.4387 57.0287 19.4387C56.9234 19.4387 56.8365 19.4335 56.7681 19.4229C56.6997 19.4177 56.6391 19.4072 56.5865 19.3914C56.5391 19.3756 56.497 19.3545 56.4601 19.3282C56.4285 19.3019 56.3969 19.2703 56.3653 19.2334L53.0168 15.1741V19.2334C53.0168 19.265 53.0089 19.294 52.9931 19.3203C52.9773 19.3466 52.951 19.3677 52.9142 19.3835C52.8826 19.3993 52.8352 19.4124 52.772 19.4229C52.7141 19.4335 52.6377 19.4387 52.543 19.4387C52.4535 19.4387 52.3771 19.4335 52.314 19.4229C52.256 19.4124 52.2087 19.3993 52.1718 19.3835C52.1349 19.3677 52.1086 19.3466 52.0928 19.3203C52.0823 19.294 52.077 19.265 52.077 19.2334V8.58769C52.077 8.5561 52.0823 8.52714 52.0928 8.50082C52.1086 8.47449 52.1349 8.45343 52.1718 8.43764C52.2087 8.41658 52.256 8.40342 52.314 8.39815C52.3771 8.38762 52.4535 8.38236 52.543 8.38236C52.6377 8.38236 52.7141 8.38762 52.772 8.39815C52.8352 8.40342 52.8826 8.41658 52.9142 8.43764C52.951 8.45343 52.9773 8.47449 52.9931 8.50082C53.0089 8.52714 53.0168 8.5561 53.0168 8.58769V15.1583L56.0257 12.1178C56.0679 12.0705 56.11 12.0336 56.1521 12.0073C56.1995 11.9757 56.2495 11.952 56.3021 11.9362C56.3548 11.9151 56.4153 11.902 56.4838 11.8967C56.5522 11.8862 56.6312 11.8809 56.7207 11.8809C56.8102 11.8809 56.8866 11.8835 56.9497 11.8888C57.0182 11.8941 57.0735 11.9046 57.1156 11.9204C57.1577 11.9362 57.1893 11.9573 57.2104 11.9836C57.2314 12.0046 57.2419 12.0336 57.2419 12.0705C57.2419 12.1231 57.2261 12.1757 57.1946 12.2284C57.163 12.2758 57.1077 12.339 57.0287 12.4179L54.1698 15.1189L57.3446 18.9096C57.4131 18.9886 57.4604 19.0491 57.4868 19.0913C57.5131 19.1334 57.5262 19.1755 57.5262 19.2176ZM68.3299 19.2176C68.3299 19.2545 68.322 19.2861 68.3062 19.3124C68.2904 19.3387 68.2641 19.3624 68.2273 19.3835C68.1904 19.3993 68.1404 19.4124 68.0772 19.4229C68.014 19.4335 67.9324 19.4387 67.8324 19.4387C67.7271 19.4387 67.6402 19.4335 67.5718 19.4229C67.5033 19.4177 67.4428 19.4072 67.3901 19.3914C67.3427 19.3756 67.3006 19.3545 67.2638 19.3282C67.2322 19.3019 67.2006 19.2703 67.169 19.2334L63.8205 15.1741V19.2334C63.8205 19.265 63.8126 19.294 63.7968 19.3203C63.781 19.3466 63.7547 19.3677 63.7178 19.3835C63.6862 19.3993 63.6388 19.4124 63.5757 19.4229C63.5178 19.4335 63.4414 19.4387 63.3466 19.4387C63.2571 19.4387 63.1808 19.4335 63.1176 19.4229C63.0597 19.4124 63.0123 19.3993 62.9755 19.3835C62.9386 19.3677 62.9123 19.3466 62.8965 19.3203C62.886 19.294 62.8807 19.265 62.8807 19.2334V8.58769C62.8807 8.5561 62.886 8.52714 62.8965 8.50082C62.9123 8.47449 62.9386 8.45343 62.9755 8.43764C63.0123 8.41658 63.0597 8.40342 63.1176 8.39815C63.1808 8.38762 63.2571 8.38236 63.3466 8.38236C63.4414 8.38236 63.5178 8.38762 63.5757 8.39815C63.6388 8.40342 63.6862 8.41658 63.7178 8.43764C63.7547 8.45343 63.781 8.47449 63.7968 8.50082C63.8126 8.52714 63.8205 8.5561 63.8205 8.58769V15.1583L66.8294 12.1178C66.8715 12.0705 66.9136 12.0336 66.9558 12.0073C67.0032 11.9757 67.0532 11.952 67.1058 11.9362C67.1585 11.9151 67.219 11.902 67.2875 11.8967C67.3559 11.8862 67.4349 11.8809 67.5244 11.8809C67.6139 11.8809 67.6902 11.8835 67.7534 11.8888C67.8218 11.8941 67.8771 11.9046 67.9193 11.9204C67.9614 11.9362 67.993 11.9573 68.014 11.9836C68.0351 12.0046 68.0456 12.0336 68.0456 12.0705C68.0456 12.1231 68.0298 12.1757 67.9982 12.2284C67.9666 12.2758 67.9114 12.339 67.8324 12.4179L64.9735 15.1189L68.1483 18.9096C68.2167 18.9886 68.2641 19.0491 68.2904 19.0913C68.3168 19.1334 68.3299 19.1755 68.3299 19.2176ZM75.5955 19.2334C75.5955 19.265 75.5876 19.294 75.5719 19.3203C75.5613 19.3466 75.5376 19.3677 75.5008 19.3835C75.4639 19.3993 75.4165 19.4124 75.3586 19.4229C75.3007 19.4335 75.2296 19.4387 75.1454 19.4387C75.0506 19.4387 74.9743 19.4335 74.9164 19.4229C74.8585 19.4124 74.8137 19.3993 74.7821 19.3835C74.7505 19.3677 74.7268 19.3466 74.711 19.3203C74.7005 19.294 74.6952 19.265 74.6952 19.2334V18.2225C74.2846 18.6806 73.8818 19.0123 73.4869 19.2176C73.0973 19.4229 72.7077 19.5256 72.3181 19.5256C71.8495 19.5256 71.4547 19.4466 71.1335 19.2887C70.8123 19.1307 70.5517 18.9175 70.3517 18.649C70.1569 18.3752 70.0147 18.0593 69.9252 17.7013C69.841 17.3433 69.7988 16.9116 69.7988 16.4061V12.0862C69.7988 12.0547 69.8041 12.0257 69.8146 11.9994C69.8304 11.973 69.8568 11.952 69.8936 11.9362C69.9305 11.9151 69.9778 11.902 70.0358 11.8967C70.0989 11.8862 70.1753 11.8809 70.2648 11.8809C70.3596 11.8809 70.4359 11.8862 70.4938 11.8967C70.557 11.902 70.6044 11.9151 70.636 11.9362C70.6728 11.952 70.6991 11.973 70.7149 11.9994C70.7307 12.0257 70.7386 12.0547 70.7386 12.0862V16.3193C70.7386 16.7615 70.7729 17.1222 70.8413 17.4012C70.9097 17.6802 71.0124 17.9198 71.1493 18.1199C71.2862 18.3147 71.4599 18.4674 71.6705 18.5779C71.8864 18.6832 72.1365 18.7359 72.4208 18.7359C72.7841 18.7359 73.1447 18.6069 73.5027 18.3489C73.866 18.0909 74.2503 17.7118 74.6558 17.2117V12.0862C74.6558 12.0547 74.661 12.0257 74.6715 11.9994C74.6873 11.973 74.7137 11.952 74.7505 11.9362C74.7874 11.9151 74.8348 11.902 74.8927 11.8967C74.9559 11.8862 75.0348 11.8809 75.1296 11.8809C75.2191 11.8809 75.2928 11.8862 75.3507 11.8967C75.4139 11.902 75.4613 11.9151 75.4929 11.9362C75.5297 11.952 75.5561 11.973 75.5719 11.9994C75.5876 12.0257 75.5955 12.0547 75.5955 12.0862V19.2334ZM84.03 19.2334C84.03 19.265 84.0221 19.294 84.0063 19.3203C83.9905 19.3466 83.9642 19.3677 83.9273 19.3835C83.8957 19.3993 83.8483 19.4124 83.7852 19.4229C83.7273 19.4335 83.6535 19.4387 83.564 19.4387C83.4693 19.4387 83.3903 19.4335 83.3271 19.4229C83.2692 19.4124 83.2218 19.3993 83.185 19.3835C83.1534 19.3677 83.1297 19.3466 83.1139 19.3203C83.0981 19.294 83.0902 19.265 83.0902 19.2334V14.9925C83.0902 14.5502 83.056 14.1922 82.9875 13.9184C82.9191 13.6394 82.8164 13.4025 82.6795 13.2077C82.5426 13.0076 82.3663 12.8549 82.1504 12.7496C81.9398 12.6391 81.6924 12.5838 81.408 12.5838C81.0448 12.5838 80.6815 12.7128 80.3182 12.9708C79.9549 13.2287 79.5732 13.6078 79.1731 14.108V19.2334C79.1731 19.265 79.1652 19.294 79.1494 19.3203C79.1336 19.3466 79.1073 19.3677 79.0704 19.3835C79.0388 19.3993 78.9914 19.4124 78.9283 19.4229C78.8703 19.4335 78.794 19.4387 78.6992 19.4387C78.6097 19.4387 78.5334 19.4335 78.4702 19.4229C78.4123 19.4124 78.3649 19.3993 78.3281 19.3835C78.2912 19.3677 78.2649 19.3466 78.2491 19.3203C78.2385 19.294 78.2333 19.265 78.2333 19.2334V12.0862C78.2333 12.0547 78.2385 12.0257 78.2491 11.9994C78.2649 11.973 78.2912 11.952 78.3281 11.9362C78.3649 11.9151 78.4097 11.902 78.4623 11.8967C78.5202 11.8862 78.5939 11.8809 78.6834 11.8809C78.7729 11.8809 78.8466 11.8862 78.9046 11.8967C78.9625 11.902 79.0072 11.9151 79.0388 11.9362C79.0704 11.952 79.0915 11.973 79.102 11.9994C79.1178 12.0257 79.1257 12.0547 79.1257 12.0862V13.0971C79.5364 12.6391 79.9391 12.3074 80.334 12.102C80.7289 11.8967 81.1211 11.794 81.5107 11.794C81.9793 11.794 82.3742 11.873 82.6953 12.031C83.0165 12.1889 83.2745 12.4021 83.4693 12.6707C83.6693 12.9392 83.8115 13.2524 83.8957 13.6104C83.9852 13.9685 84.03 14.4002 84.03 14.9056V19.2334ZM90.8376 17.3301C90.8376 17.6724 90.7744 17.9804 90.648 18.2541C90.5217 18.5226 90.34 18.7517 90.1031 18.9412C89.8714 19.1307 89.5924 19.2755 89.266 19.3756C88.9396 19.4756 88.5789 19.5256 88.184 19.5256C87.9366 19.5256 87.7023 19.5046 87.4812 19.4624C87.26 19.4256 87.06 19.3782 86.881 19.3203C86.7019 19.2571 86.5493 19.1913 86.4229 19.1228C86.3018 19.0544 86.2123 18.9939 86.1544 18.9412C86.0965 18.8886 86.0544 18.8227 86.028 18.7438C86.0017 18.6648 85.9885 18.5595 85.9885 18.4279C85.9885 18.3594 85.9938 18.2989 86.0043 18.2462C86.0149 18.1936 86.028 18.1488 86.0438 18.112C86.0596 18.0751 86.0807 18.0488 86.107 18.033C86.1333 18.0119 86.1623 18.0014 86.1939 18.0014C86.2518 18.0014 86.336 18.0383 86.4466 18.112C86.5572 18.1857 86.6941 18.2673 86.8573 18.3568C87.0257 18.441 87.2232 18.52 87.4496 18.5937C87.6812 18.6674 87.9471 18.7043 88.2472 18.7043C88.4894 18.7043 88.7105 18.678 88.9106 18.6253C89.1107 18.5727 89.2844 18.4937 89.4318 18.3884C89.5792 18.2831 89.6924 18.1488 89.7714 17.9856C89.8557 17.8171 89.8978 17.6223 89.8978 17.4012C89.8978 17.1801 89.8451 16.9932 89.7398 16.8405C89.6345 16.6878 89.495 16.5562 89.3213 16.4456C89.1528 16.3298 88.958 16.2298 88.7369 16.1455C88.521 16.056 88.2972 15.9665 88.0656 15.877C87.8392 15.7822 87.6154 15.6796 87.3943 15.569C87.1784 15.4584 86.9836 15.3242 86.8099 15.1662C86.6414 15.0083 86.5045 14.8188 86.3992 14.5976C86.2939 14.3765 86.2413 14.1106 86.2413 13.8C86.2413 13.5525 86.2887 13.3103 86.3834 13.0734C86.4782 12.8312 86.623 12.6154 86.8178 12.4258C87.0178 12.2363 87.2706 12.0836 87.5759 11.9678C87.8866 11.852 88.2525 11.794 88.6737 11.794C88.8527 11.794 89.0291 11.8098 89.2028 11.8414C89.3818 11.8677 89.5424 11.9046 89.6845 11.952C89.832 11.9994 89.9583 12.052 90.0636 12.1099C90.1689 12.1626 90.2479 12.21 90.3005 12.2521C90.3585 12.2942 90.3953 12.3311 90.4111 12.3627C90.4322 12.389 90.4453 12.4179 90.4506 12.4495C90.4611 12.4811 90.469 12.5206 90.4743 12.568C90.4795 12.6101 90.4822 12.6628 90.4822 12.7259C90.4822 12.7891 90.4769 12.847 90.4664 12.8997C90.4611 12.9471 90.4506 12.9892 90.4348 13.026C90.419 13.0629 90.3979 13.0918 90.3716 13.1129C90.3506 13.1287 90.3242 13.1366 90.2926 13.1366C90.2505 13.1366 90.1873 13.1076 90.1031 13.0497C90.0189 12.9918 89.9083 12.9286 89.7714 12.8602C89.6345 12.7917 89.4713 12.7286 89.2818 12.6707C89.0922 12.6127 88.8737 12.5838 88.6263 12.5838C88.3788 12.5838 88.1603 12.6127 87.9708 12.6707C87.7865 12.7286 87.6338 12.8102 87.5128 12.9155C87.3917 13.0208 87.2995 13.1445 87.2363 13.2867C87.1784 13.4288 87.1495 13.5841 87.1495 13.7526C87.1495 13.9843 87.2021 14.1791 87.3074 14.337C87.4127 14.495 87.5522 14.6318 87.726 14.7477C87.8997 14.8635 88.0972 14.9662 88.3183 15.0557C88.5394 15.1452 88.7632 15.2347 88.9896 15.3242C89.2212 15.4137 89.4476 15.5137 89.6687 15.6243C89.8899 15.7296 90.0873 15.8586 90.2611 16.0113C90.4348 16.1639 90.5743 16.3482 90.6796 16.5641C90.7849 16.7747 90.8376 17.03 90.8376 17.3301ZM96.1446 18.8069C96.1446 18.9175 96.1341 19.007 96.113 19.0755C96.0972 19.1439 96.0683 19.1992 96.0262 19.2413C95.9893 19.2782 95.9314 19.315 95.8524 19.3519C95.7787 19.3835 95.6918 19.4098 95.5918 19.4308C95.4918 19.4572 95.3865 19.4756 95.2759 19.4861C95.1653 19.5019 95.0574 19.5098 94.9521 19.5098C94.5994 19.5098 94.2993 19.4624 94.0518 19.3677C93.8044 19.2729 93.6017 19.1307 93.4437 18.9412C93.2858 18.7464 93.1699 18.5016 93.0962 18.2067C93.0278 17.9119 92.9936 17.5644 92.9936 17.1643V12.718H91.9274C91.8537 12.718 91.7958 12.6864 91.7537 12.6233C91.7115 12.5548 91.6905 12.4548 91.6905 12.3232C91.6905 12.2547 91.6957 12.1968 91.7063 12.1494C91.7168 12.0968 91.7326 12.0547 91.7537 12.0231C91.7747 11.9862 91.7984 11.9599 91.8247 11.9441C91.8563 11.9283 91.8906 11.9204 91.9274 11.9204H92.9936V10.1672C92.9936 10.1356 92.9988 10.1066 93.0094 10.0803C93.0251 10.054 93.0515 10.0329 93.0883 10.0171C93.1252 9.99606 93.1726 9.9829 93.2305 9.97763C93.2937 9.9671 93.37 9.96184 93.4595 9.96184C93.5543 9.96184 93.6306 9.9671 93.6885 9.97763C93.7517 9.9829 93.7991 9.99606 93.8307 10.0171C93.8675 10.0329 93.8939 10.054 93.9097 10.0803C93.9255 10.1066 93.9334 10.1356 93.9334 10.1672V11.9204H95.9077C95.9446 11.9204 95.9761 11.9283 96.0025 11.9441C96.0341 11.9599 96.0604 11.9862 96.0814 12.0231C96.1025 12.0547 96.1183 12.0968 96.1288 12.1494C96.1394 12.1968 96.1446 12.2547 96.1446 12.3232C96.1446 12.4548 96.1209 12.5548 96.0736 12.6233C96.0314 12.6864 95.9761 12.718 95.9077 12.718H93.9334V17.0379C93.9334 17.5802 94.0097 17.9935 94.1624 18.2778C94.3203 18.5621 94.6046 18.7043 95.0153 18.7043C95.1417 18.7043 95.2549 18.6911 95.3549 18.6648C95.4602 18.6385 95.5523 18.6095 95.6313 18.5779C95.7103 18.5463 95.7761 18.5174 95.8287 18.4911C95.8866 18.4647 95.9367 18.4516 95.9788 18.4516C96.0051 18.4516 96.0288 18.4568 96.0499 18.4674C96.0709 18.4779 96.0867 18.4989 96.0972 18.5305C96.113 18.5569 96.1236 18.5937 96.1288 18.6411C96.1394 18.6832 96.1446 18.7385 96.1446 18.8069ZM107.509 12.0705C107.509 12.0968 107.504 12.1284 107.493 12.1652C107.488 12.1968 107.48 12.2337 107.47 12.2758L105.258 19.2334C105.248 19.2755 105.227 19.3098 105.195 19.3361C105.169 19.3624 105.132 19.3835 105.085 19.3993C105.037 19.415 104.974 19.4256 104.895 19.4308C104.821 19.4361 104.732 19.4387 104.626 19.4387C104.516 19.4387 104.421 19.4335 104.342 19.4229C104.263 19.4177 104.197 19.4072 104.145 19.3914C104.097 19.3756 104.058 19.3545 104.026 19.3282C104 19.3019 103.982 19.2703 103.971 19.2334L102.313 13.5947L102.297 13.5315L102.281 13.5947L100.733 19.2334C100.722 19.2755 100.701 19.3098 100.67 19.3361C100.638 19.3624 100.594 19.3835 100.536 19.3993C100.483 19.415 100.417 19.4256 100.338 19.4308C100.259 19.4361 100.17 19.4387 100.07 19.4387C99.9643 19.4387 99.8748 19.4335 99.8011 19.4229C99.7274 19.4177 99.6642 19.4072 99.6116 19.3914C99.5642 19.3756 99.5274 19.3545 99.501 19.3282C99.4747 19.3019 99.4563 19.2703 99.4457 19.2334L97.2503 12.2758C97.2345 12.2389 97.2213 12.2021 97.2108 12.1652C97.2055 12.1284 97.2029 12.0968 97.2029 12.0705C97.2029 12.0336 97.2108 12.002 97.2266 11.9757C97.2424 11.9494 97.2687 11.9309 97.3055 11.9204C97.3424 11.9046 97.3898 11.8941 97.4477 11.8888C97.5056 11.8835 97.5767 11.8809 97.6609 11.8809C97.7715 11.8809 97.861 11.8862 97.9294 11.8967C97.9979 11.902 98.0479 11.9125 98.0795 11.9283C98.1164 11.9441 98.1427 11.9652 98.1585 11.9915C98.1743 12.0178 98.1874 12.0494 98.198 12.0862L100.085 18.3252L100.101 18.3805L100.117 18.3252L101.831 12.0862C101.841 12.0494 101.854 12.0178 101.87 11.9915C101.891 11.9652 101.918 11.9441 101.949 11.9283C101.986 11.9125 102.033 11.902 102.091 11.8967C102.155 11.8862 102.234 11.8809 102.328 11.8809C102.418 11.8809 102.492 11.8862 102.549 11.8967C102.607 11.902 102.655 11.9125 102.692 11.9283C102.728 11.9441 102.755 11.9652 102.771 11.9915C102.786 12.0178 102.8 12.0494 102.81 12.0862L104.658 18.3252L104.674 18.3805L104.682 18.3252L106.561 12.0862C106.572 12.0494 106.585 12.0178 106.601 11.9915C106.622 11.9652 106.651 11.9441 106.688 11.9283C106.725 11.9125 106.775 11.902 106.838 11.8967C106.906 11.8862 106.993 11.8809 107.098 11.8809C107.183 11.8809 107.251 11.8835 107.304 11.8888C107.356 11.8941 107.398 11.9046 107.43 11.9204C107.462 11.9362 107.483 11.9573 107.493 11.9836C107.504 12.0046 107.509 12.0336 107.509 12.0705ZM115.004 15.2926C115.004 15.4821 114.954 15.6138 114.854 15.6875C114.754 15.7559 114.656 15.7901 114.561 15.7901H109.689C109.689 16.2324 109.731 16.6325 109.815 16.9905C109.905 17.3486 110.049 17.6566 110.249 17.9145C110.449 18.1673 110.71 18.3621 111.031 18.4989C111.352 18.6358 111.747 18.7043 112.216 18.7043C112.548 18.7043 112.845 18.6753 113.108 18.6174C113.372 18.5595 113.598 18.4963 113.787 18.4279C113.982 18.3542 114.14 18.2884 114.261 18.2304C114.388 18.1725 114.477 18.1436 114.53 18.1436C114.561 18.1436 114.59 18.1515 114.617 18.1673C114.643 18.1831 114.664 18.2094 114.68 18.2462C114.696 18.2778 114.706 18.3199 114.711 18.3726C114.722 18.4252 114.727 18.4911 114.727 18.57C114.727 18.6069 114.725 18.6437 114.719 18.6806C114.714 18.7122 114.706 18.7438 114.696 18.7754C114.69 18.8017 114.68 18.828 114.664 18.8543C114.648 18.8807 114.627 18.907 114.601 18.9333C114.575 18.9596 114.493 19.007 114.356 19.0755C114.219 19.1386 114.04 19.2045 113.819 19.2729C113.598 19.3361 113.34 19.394 113.045 19.4466C112.756 19.4993 112.442 19.5256 112.105 19.5256C111.552 19.5256 111.063 19.444 110.636 19.2808C110.21 19.1123 109.852 18.8675 109.562 18.5463C109.273 18.2199 109.052 17.8171 108.899 17.338C108.752 16.8589 108.678 16.3035 108.678 15.6717C108.678 15.0662 108.754 14.5239 108.907 14.0448C109.065 13.5657 109.289 13.1603 109.578 12.8286C109.868 12.4916 110.215 12.2363 110.621 12.0626C111.031 11.8835 111.487 11.794 111.987 11.794C112.524 11.794 112.982 11.8835 113.361 12.0626C113.74 12.2416 114.051 12.4837 114.293 12.7891C114.54 13.0892 114.719 13.4393 114.83 13.8395C114.946 14.2396 115.004 14.6608 115.004 15.1031V15.2926ZM114.032 15.0162C114.048 14.258 113.874 13.6657 113.511 13.2393C113.148 12.8128 112.619 12.5996 111.924 12.5996C111.566 12.5996 111.25 12.668 110.976 12.8049C110.707 12.9365 110.478 13.1129 110.289 13.334C110.105 13.5552 109.962 13.8131 109.862 14.108C109.762 14.3976 109.704 14.7003 109.689 15.0162H114.032ZM121.132 12.4495C121.132 12.5285 121.129 12.5969 121.124 12.6549C121.119 12.7075 121.108 12.7523 121.093 12.7891C121.082 12.8207 121.066 12.847 121.045 12.8681C121.029 12.8839 121.006 12.8918 120.974 12.8918C120.927 12.8918 120.871 12.8813 120.808 12.8602C120.745 12.8339 120.671 12.8075 120.587 12.7812C120.503 12.7549 120.411 12.7312 120.311 12.7101C120.211 12.6838 120.1 12.6707 119.979 12.6707C119.837 12.6707 119.697 12.7022 119.56 12.7654C119.424 12.8233 119.279 12.9207 119.126 13.0576C118.979 13.1893 118.821 13.3656 118.652 13.5868C118.489 13.8079 118.307 14.079 118.107 14.4002V19.2334C118.107 19.265 118.099 19.294 118.084 19.3203C118.068 19.3466 118.042 19.3677 118.005 19.3835C117.973 19.3993 117.926 19.4124 117.863 19.4229C117.805 19.4335 117.728 19.4387 117.634 19.4387C117.544 19.4387 117.468 19.4335 117.404 19.4229C117.347 19.4124 117.299 19.3993 117.262 19.3835C117.225 19.3677 117.199 19.3466 117.183 19.3203C117.173 19.294 117.168 19.265 117.168 19.2334V12.0862C117.168 12.0547 117.173 12.0257 117.183 11.9994C117.199 11.973 117.225 11.952 117.262 11.9362C117.299 11.9151 117.344 11.902 117.397 11.8967C117.454 11.8862 117.528 11.8809 117.618 11.8809C117.707 11.8809 117.781 11.8862 117.839 11.8967C117.897 11.902 117.942 11.9151 117.973 11.9362C118.005 11.952 118.026 11.973 118.036 11.9994C118.052 12.0257 118.06 12.0547 118.06 12.0862V13.2156C118.265 12.9155 118.455 12.6733 118.629 12.489C118.802 12.3047 118.968 12.1626 119.126 12.0626C119.284 11.9573 119.437 11.8862 119.584 11.8493C119.737 11.8125 119.892 11.794 120.05 11.794C120.119 11.794 120.198 11.7993 120.287 11.8098C120.377 11.8151 120.471 11.8283 120.571 11.8493C120.677 11.8704 120.769 11.8967 120.848 11.9283C120.932 11.9546 120.99 11.9809 121.021 12.0073C121.053 12.0283 121.074 12.0494 121.085 12.0705C121.095 12.0862 121.103 12.1099 121.108 12.1415C121.119 12.1679 121.124 12.2073 121.124 12.26C121.129 12.3074 121.132 12.3706 121.132 12.4495ZM128.192 19.2176C128.192 19.2545 128.184 19.2861 128.169 19.3124C128.153 19.3387 128.127 19.3624 128.09 19.3835C128.053 19.3993 128.003 19.4124 127.94 19.4229C127.876 19.4335 127.795 19.4387 127.695 19.4387C127.59 19.4387 127.503 19.4335 127.434 19.4229C127.366 19.4177 127.305 19.4072 127.253 19.3914C127.205 19.3756 127.163 19.3545 127.126 19.3282C127.095 19.3019 127.063 19.2703 127.031 19.2334L123.683 15.1741V19.2334C123.683 19.265 123.675 19.294 123.659 19.3203C123.643 19.3466 123.617 19.3677 123.58 19.3835C123.549 19.3993 123.501 19.4124 123.438 19.4229C123.38 19.4335 123.304 19.4387 123.209 19.4387C123.12 19.4387 123.043 19.4335 122.98 19.4229C122.922 19.4124 122.875 19.3993 122.838 19.3835C122.801 19.3677 122.775 19.3466 122.759 19.3203C122.748 19.294 122.743 19.265 122.743 19.2334V8.58769C122.743 8.5561 122.748 8.52714 122.759 8.50082C122.775 8.47449 122.801 8.45343 122.838 8.43764C122.875 8.41658 122.922 8.40342 122.98 8.39815C123.043 8.38762 123.12 8.38236 123.209 8.38236C123.304 8.38236 123.38 8.38762 123.438 8.39815C123.501 8.40342 123.549 8.41658 123.58 8.43764C123.617 8.45343 123.643 8.47449 123.659 8.50082C123.675 8.52714 123.683 8.5561 123.683 8.58769V15.1583L126.692 12.1178C126.734 12.0705 126.776 12.0336 126.818 12.0073C126.866 11.9757 126.916 11.952 126.968 11.9362C127.021 11.9151 127.081 11.902 127.15 11.8967C127.218 11.8862 127.297 11.8809 127.387 11.8809C127.476 11.8809 127.553 11.8835 127.616 11.8888C127.684 11.8941 127.74 11.9046 127.782 11.9204C127.824 11.9362 127.855 11.9573 127.876 11.9836C127.898 12.0046 127.908 12.0336 127.908 12.0705C127.908 12.1231 127.892 12.1757 127.861 12.2284C127.829 12.2758 127.774 12.339 127.695 12.4179L124.836 15.1189L128.011 18.9096C128.079 18.9886 128.127 19.0491 128.153 19.0913C128.179 19.1334 128.192 19.1755 128.192 19.2176ZM135.158 15.2926C135.158 15.4821 135.108 15.6138 135.008 15.6875C134.908 15.7559 134.81 15.7901 134.716 15.7901H129.843C129.843 16.2324 129.885 16.6325 129.969 16.9905C130.059 17.3486 130.204 17.6566 130.404 17.9145C130.604 18.1673 130.864 18.3621 131.185 18.4989C131.507 18.6358 131.902 18.7043 132.37 18.7043C132.702 18.7043 132.999 18.6753 133.262 18.6174C133.526 18.5595 133.752 18.4963 133.942 18.4279C134.136 18.3542 134.294 18.2884 134.416 18.2304C134.542 18.1725 134.631 18.1436 134.684 18.1436C134.716 18.1436 134.745 18.1515 134.771 18.1673C134.797 18.1831 134.818 18.2094 134.834 18.2462C134.85 18.2778 134.86 18.3199 134.866 18.3726C134.876 18.4252 134.881 18.4911 134.881 18.57C134.881 18.6069 134.879 18.6437 134.874 18.6806C134.868 18.7122 134.86 18.7438 134.85 18.7754C134.845 18.8017 134.834 18.828 134.818 18.8543C134.802 18.8807 134.781 18.907 134.755 18.9333C134.729 18.9596 134.647 19.007 134.51 19.0755C134.373 19.1386 134.194 19.2045 133.973 19.2729C133.752 19.3361 133.494 19.394 133.199 19.4466C132.91 19.4993 132.596 19.5256 132.26 19.5256C131.707 19.5256 131.217 19.444 130.791 19.2808C130.364 19.1123 130.006 18.8675 129.717 18.5463C129.427 18.2199 129.206 17.8171 129.053 17.338C128.906 16.8589 128.832 16.3035 128.832 15.6717C128.832 15.0662 128.908 14.5239 129.061 14.0448C129.219 13.5657 129.443 13.1603 129.732 12.8286C130.022 12.4916 130.369 12.2363 130.775 12.0626C131.185 11.8835 131.641 11.794 132.141 11.794C132.678 11.794 133.136 11.8835 133.515 12.0626C133.894 12.2416 134.205 12.4837 134.447 12.7891C134.695 13.0892 134.874 13.4393 134.984 13.8395C135.1 14.2396 135.158 14.6608 135.158 15.1031V15.2926ZM134.186 15.0162C134.202 14.258 134.029 13.6657 133.665 13.2393C133.302 12.8128 132.773 12.5996 132.078 12.5996C131.72 12.5996 131.404 12.668 131.13 12.8049C130.862 12.9365 130.633 13.1129 130.443 13.334C130.259 13.5552 130.117 13.8131 130.017 14.108C129.917 14.3976 129.859 14.7003 129.843 15.0162H134.186ZM143.118 19.2334C143.118 19.265 143.111 19.294 143.095 19.3203C143.079 19.3466 143.053 19.3677 143.016 19.3835C142.984 19.3993 142.937 19.4124 142.874 19.4229C142.816 19.4335 142.742 19.4387 142.653 19.4387C142.558 19.4387 142.479 19.4335 142.416 19.4229C142.358 19.4124 142.31 19.3993 142.273 19.3835C142.242 19.3677 142.218 19.3466 142.202 19.3203C142.187 19.294 142.179 19.265 142.179 19.2334V14.9925C142.179 14.5502 142.144 14.1922 142.076 13.9184C142.008 13.6394 141.905 13.4025 141.768 13.2077C141.631 13.0076 141.455 12.8549 141.239 12.7496C141.028 12.6391 140.781 12.5838 140.497 12.5838C140.133 12.5838 139.77 12.7128 139.407 12.9708C139.043 13.2287 138.662 13.6078 138.262 14.108V19.2334C138.262 19.265 138.254 19.294 138.238 19.3203C138.222 19.3466 138.196 19.3677 138.159 19.3835C138.127 19.3993 138.08 19.4124 138.017 19.4229C137.959 19.4335 137.882 19.4387 137.788 19.4387C137.698 19.4387 137.622 19.4335 137.559 19.4229C137.501 19.4124 137.453 19.3993 137.417 19.3835C137.38 19.3677 137.353 19.3466 137.338 19.3203C137.327 19.294 137.322 19.265 137.322 19.2334V12.0862C137.322 12.0547 137.327 12.0257 137.338 11.9994C137.353 11.973 137.38 11.952 137.417 11.9362C137.453 11.9151 137.498 11.902 137.551 11.8967C137.609 11.8862 137.682 11.8809 137.772 11.8809C137.861 11.8809 137.935 11.8862 137.993 11.8967C138.051 11.902 138.096 11.9151 138.127 11.9362C138.159 11.952 138.18 11.973 138.19 11.9994C138.206 12.0257 138.214 12.0547 138.214 12.0862V13.0971C138.625 12.6391 139.028 12.3074 139.422 12.102C139.817 11.8967 140.21 11.794 140.599 11.794C141.068 11.794 141.463 11.873 141.784 12.031C142.105 12.1889 142.363 12.4021 142.558 12.6707C142.758 12.9392 142.9 13.2524 142.984 13.6104C143.074 13.9685 143.118 14.4002 143.118 14.9056V19.2334Z" fill="white"/>
</g>
<g filter="url(#filter1_d_68_1043)">
<path d="M160 0H174.478C180.001 0 184.478 4.47715 184.478 10V30.78H160V0Z" fill="#194456" shape-rendering="crispEdges"/>
<path d="M173.577 15.39L166.739 8.87335L168.82 6.89001L177.739 15.39L168.82 23.89L166.739 21.9067L173.577 15.39Z" fill="white"/>
</g>
<defs>
<filter id="filter0_d_68_1043" x="0" y="0" width="164.348" height="38.7826" filterUnits="userSpaceOnUse" color-interpolation-filters="sRGB">
<feFlood flood-opacity="0" result="BackgroundImageFix"/>
<feColorMatrix in="SourceAlpha" type="matrix" values="0 0 0 0 0 0 0 0 0 0 0 0 0 0 0 0 0 0 127 0" result="hardAlpha"/>
<feOffset dy="4"/>
<feGaussianBlur stdDeviation="2"/>
<feComposite in2="hardAlpha" operator="out"/>
<feColorMatrix type="matrix" values="0 0 0 0 0 0 0 0 0 0 0 0 0 0 0 0 0 0 0.1 0"/>
<feBlend mode="normal" in2="BackgroundImageFix" result="effect1_dropShadow_68_1043"/>
<feBlend mode="normal" in="SourceGraphic" in2="effect1_dropShadow_68_1043" result="shape"/>
</filter>
<filter id="filter1_d_68_1043" x="156" y="0" width="32.4783" height="38.78" filterUnits="userSpaceOnUse" color-interpolation-filters="sRGB">
<feFlood flood-opacity="0" result="BackgroundImageFix"/>
<feColorMatrix in="SourceAlpha" type="matrix" values="0 0 0 0 0 0 0 0 0 0 0 0 0 0 0 0 0 0 127 0" result="hardAlpha"/>
<feOffset dy="4"/>
<feGaussianBlur stdDeviation="2"/>
<feComposite in2="hardAlpha" operator="out"/>
<feColorMatrix type="matrix" values="0 0 0 0 0 0 0 0 0 0 0 0 0 0 0 0 0 0 0.1 0"/>
<feBlend mode="normal" in2="BackgroundImageFix" result="effect1_dropShadow_68_1043"/>
<feBlend mode="normal" in="SourceGraphic" in2="effect1_dropShadow_68_1043" result="shape"/>
</filter>
</defs>
</svg>
