<svg width="87" height="19" viewBox="0 0 87 19" fill="none" xmlns="http://www.w3.org/2000/svg">
<rect x="62.3929" y="0.25" width="24.3571" height="18.5" fill="#F6F9FC"/>
<rect x="62.3929" y="0.25" width="24.3571" height="18.5" stroke="black" stroke-width="0.5"/>
<path d="M79.0714 10L71.0714 14.5L71.0714 5.5L79.0714 10Z" fill="#20556B"/>
<rect x="0.25" y="0.25" width="62.8857" height="18.5" fill="#F6F9FC"/>
<rect x="0.25" y="0.25" width="62.8857" height="18.5" stroke="black" stroke-width="0.5"/>
<path d="M12.7368 12.5239C12.7368 12.6086 12.7326 12.6805 12.7241 12.7397C12.7156 12.7948 12.7008 12.8434 12.6797 12.8857C12.6627 12.9238 12.6395 12.9535 12.6098 12.9746C12.5844 12.9915 12.5527 13 12.5146 13H8.88376C8.78643 13 8.69333 12.9683 8.60446 12.9048C8.51983 12.8371 8.47751 12.7207 8.47751 12.5557V4.95117C8.47751 4.91732 8.48597 4.8877 8.5029 4.8623C8.51983 4.83691 8.54945 4.81787 8.59177 4.80518C8.63408 4.78825 8.69121 4.77555 8.76315 4.76709C8.83509 4.75439 8.92184 4.74805 9.02341 4.74805C9.1292 4.74805 9.21595 4.75439 9.28366 4.76709C9.3556 4.77555 9.41273 4.78825 9.45505 4.80518C9.49737 4.81787 9.52699 4.83691 9.54391 4.8623C9.56084 4.8877 9.56931 4.91732 9.56931 4.95117V12.0542H12.5146C12.5527 12.0542 12.5844 12.0648 12.6098 12.0859C12.6395 12.1029 12.6627 12.1304 12.6797 12.1685C12.7008 12.2023 12.7156 12.2489 12.7241 12.3081C12.7326 12.3674 12.7368 12.4393 12.7368 12.5239ZM18.7036 9.7373C18.7036 9.90234 18.6613 10.0208 18.5766 10.0928C18.4962 10.1605 18.4031 10.1943 18.2973 10.1943H14.5522C14.5522 10.5117 14.584 10.7974 14.6474 11.0513C14.7109 11.3052 14.8167 11.5231 14.9648 11.7051C15.1129 11.887 15.3055 12.0267 15.5424 12.124C15.7794 12.2214 16.0693 12.27 16.4121 12.27C16.6829 12.27 16.9241 12.2489 17.1357 12.2065C17.3473 12.16 17.5293 12.1092 17.6816 12.0542C17.8382 11.9992 17.9651 11.9505 18.0625 11.9082C18.164 11.8617 18.2402 11.8384 18.291 11.8384C18.3206 11.8384 18.346 11.8468 18.3672 11.8638C18.3925 11.8765 18.4116 11.8976 18.4243 11.9272C18.437 11.9569 18.4454 11.9992 18.4497 12.0542C18.4581 12.105 18.4624 12.1685 18.4624 12.2446C18.4624 12.2996 18.4603 12.3483 18.456 12.3906C18.4518 12.4287 18.4454 12.4647 18.437 12.4985C18.4327 12.5282 18.4222 12.5557 18.4052 12.5811C18.3925 12.6064 18.3735 12.6318 18.3481 12.6572C18.327 12.6784 18.2592 12.7165 18.145 12.7715C18.0307 12.8223 17.8826 12.873 17.7007 12.9238C17.5187 12.9746 17.3071 13.019 17.0659 13.0571C16.8289 13.0994 16.575 13.1206 16.3042 13.1206C15.8344 13.1206 15.4218 13.055 15.0664 12.9238C14.7151 12.7926 14.4189 12.598 14.1777 12.3398C13.9365 12.0817 13.7545 11.758 13.6318 11.3687C13.5091 10.9793 13.4477 10.5265 13.4477 10.0103C13.4477 9.51937 13.5112 9.07926 13.6382 8.68994C13.7651 8.29639 13.9471 7.96419 14.1841 7.69336C14.4253 7.41829 14.7151 7.20882 15.0537 7.06494C15.3922 6.91683 15.771 6.84277 16.1899 6.84277C16.6385 6.84277 17.0193 6.91471 17.3325 7.05859C17.6499 7.20247 17.9101 7.39714 18.1133 7.64258C18.3164 7.88379 18.4645 8.16943 18.5576 8.49951C18.6549 8.82536 18.7036 9.17448 18.7036 9.54688V9.7373ZM17.6499 9.42627C17.6626 8.87614 17.5398 8.4445 17.2817 8.13135C17.0278 7.8182 16.6491 7.66162 16.1455 7.66162C15.8873 7.66162 15.6609 7.71029 15.4663 7.80762C15.2716 7.90495 15.1087 8.03402 14.9775 8.19482C14.8463 8.35563 14.7448 8.54395 14.6728 8.75977C14.6009 8.97135 14.5607 9.19352 14.5522 9.42627H17.6499ZM25.1782 9.7373C25.1782 9.90234 25.1359 10.0208 25.0512 10.0928C24.9708 10.1605 24.8777 10.1943 24.7719 10.1943H21.0268C21.0268 10.5117 21.0586 10.7974 21.122 11.0513C21.1855 11.3052 21.2913 11.5231 21.4394 11.7051C21.5875 11.887 21.7801 12.0267 22.0171 12.124C22.254 12.2214 22.5439 12.27 22.8867 12.27C23.1575 12.27 23.3987 12.2489 23.6103 12.2065C23.8219 12.16 24.0039 12.1092 24.1562 12.0542C24.3128 11.9992 24.4397 11.9505 24.5371 11.9082C24.6386 11.8617 24.7148 11.8384 24.7656 11.8384C24.7952 11.8384 24.8206 11.8468 24.8418 11.8638C24.8672 11.8765 24.8862 11.8976 24.8989 11.9272C24.9116 11.9569 24.9201 11.9992 24.9243 12.0542C24.9327 12.105 24.937 12.1685 24.937 12.2446C24.937 12.2996 24.9349 12.3483 24.9306 12.3906C24.9264 12.4287 24.9201 12.4647 24.9116 12.4985C24.9074 12.5282 24.8968 12.5557 24.8799 12.5811C24.8672 12.6064 24.8481 12.6318 24.8227 12.6572C24.8016 12.6784 24.7339 12.7165 24.6196 12.7715C24.5053 12.8223 24.3572 12.873 24.1753 12.9238C23.9933 12.9746 23.7817 13.019 23.5405 13.0571C23.3035 13.0994 23.0496 13.1206 22.7788 13.1206C22.3091 13.1206 21.8965 13.055 21.541 12.9238C21.1897 12.7926 20.8935 12.598 20.6523 12.3398C20.4111 12.0817 20.2291 11.758 20.1064 11.3687C19.9837 10.9793 19.9223 10.5265 19.9223 10.0103C19.9223 9.51937 19.9858 9.07926 20.1128 8.68994C20.2397 8.29639 20.4217 7.96419 20.6587 7.69336C20.8999 7.41829 21.1897 7.20882 21.5283 7.06494C21.8668 6.91683 22.2456 6.84277 22.6645 6.84277C23.1131 6.84277 23.4939 6.91471 23.8071 7.05859C24.1245 7.20247 24.3847 7.39714 24.5879 7.64258C24.791 7.88379 24.9391 8.16943 25.0322 8.49951C25.1295 8.82536 25.1782 9.17448 25.1782 9.54688V9.7373ZM24.1245 9.42627C24.1372 8.87614 24.0145 8.4445 23.7563 8.13135C23.5024 7.8182 23.1237 7.66162 22.6201 7.66162C22.3619 7.66162 22.1355 7.71029 21.9409 7.80762C21.7462 7.90495 21.5833 8.03402 21.4521 8.19482C21.3209 8.35563 21.2194 8.54395 21.1474 8.75977C21.0755 8.97135 21.0353 9.19352 21.0268 9.42627H24.1245ZM30.3642 11.2861C30.3642 11.5781 30.3092 11.8384 30.1992 12.0669C30.0934 12.2954 29.9411 12.488 29.7422 12.6445C29.5433 12.8011 29.3063 12.9196 29.0312 13C28.7562 13.0804 28.4536 13.1206 28.1235 13.1206C27.9204 13.1206 27.7257 13.1037 27.5395 13.0698C27.3576 13.0402 27.1925 13.0021 27.0444 12.9556C26.9005 12.9048 26.7778 12.854 26.6762 12.8032C26.5747 12.7482 26.5006 12.6995 26.4541 12.6572C26.4075 12.6149 26.3737 12.5557 26.3525 12.4795C26.3313 12.4033 26.3208 12.2996 26.3208 12.1685C26.3208 12.0881 26.325 12.0203 26.3335 11.9653C26.3419 11.9103 26.3525 11.8659 26.3652 11.832C26.3779 11.7982 26.3948 11.7749 26.416 11.7622C26.4414 11.7453 26.4689 11.7368 26.4985 11.7368C26.5451 11.7368 26.6128 11.7664 26.7016 11.8257C26.7947 11.8807 26.9069 11.9421 27.0381 12.0098C27.1735 12.0775 27.3322 12.141 27.5141 12.2002C27.6961 12.2552 27.9056 12.2827 28.1425 12.2827C28.3203 12.2827 28.4811 12.2637 28.625 12.2256C28.7688 12.1875 28.8937 12.1325 28.9995 12.0605C29.1053 11.9844 29.1857 11.8892 29.2407 11.7749C29.2999 11.6606 29.3296 11.5252 29.3296 11.3687C29.3296 11.2078 29.2872 11.0724 29.2026 10.9624C29.1222 10.8524 29.0143 10.755 28.8789 10.6704C28.7435 10.5858 28.5911 10.5117 28.4218 10.4482C28.2526 10.3805 28.077 10.3107 27.895 10.2388C27.7173 10.1668 27.5416 10.0864 27.3681 9.99756C27.1989 9.90446 27.0465 9.79232 26.9111 9.66113C26.7757 9.52995 26.6657 9.37337 26.581 9.19141C26.5006 9.00944 26.4604 8.7915 26.4604 8.5376C26.4604 8.31331 26.5027 8.09961 26.5874 7.89648C26.6762 7.68913 26.8074 7.50928 26.9809 7.35693C27.1544 7.20036 27.3702 7.07552 27.6284 6.98242C27.8908 6.88932 28.1954 6.84277 28.5424 6.84277C28.6948 6.84277 28.8471 6.85547 28.9995 6.88086C29.1518 6.90625 29.2894 6.93799 29.4121 6.97607C29.5348 7.01416 29.6385 7.05648 29.7231 7.10303C29.812 7.14535 29.8776 7.18343 29.9199 7.21729C29.9664 7.25114 29.9961 7.28076 30.0088 7.30615C30.0257 7.33154 30.0363 7.36117 30.0405 7.39502C30.049 7.42464 30.0553 7.46273 30.0595 7.50928C30.068 7.55583 30.0722 7.61296 30.0722 7.68066C30.0722 7.7526 30.068 7.81608 30.0595 7.87109C30.0553 7.92188 30.0447 7.96419 30.0278 7.99805C30.0151 8.0319 29.9982 8.05729 29.977 8.07422C29.9559 8.08691 29.9326 8.09326 29.9072 8.09326C29.8691 8.09326 29.8141 8.06999 29.7422 8.02344C29.6702 7.97689 29.5771 7.92822 29.4629 7.87744C29.3486 7.82243 29.2132 7.77165 29.0566 7.7251C28.9043 7.67855 28.7286 7.65527 28.5298 7.65527C28.352 7.65527 28.1954 7.67643 28.06 7.71875C27.9246 7.75684 27.8125 7.81396 27.7236 7.89014C27.639 7.96208 27.5734 8.04883 27.5268 8.15039C27.4845 8.25195 27.4633 8.36198 27.4633 8.48047C27.4633 8.64551 27.5057 8.78516 27.5903 8.89941C27.6749 9.00944 27.785 9.10677 27.9204 9.19141C28.0558 9.27604 28.2103 9.35221 28.3838 9.41992C28.5573 9.48763 28.7329 9.55745 28.9106 9.62939C29.0926 9.70133 29.2703 9.78174 29.4438 9.87061C29.6216 9.95947 29.7781 10.0674 29.9135 10.1943C30.049 10.3213 30.1569 10.4736 30.2373 10.6514C30.3219 10.8291 30.3642 11.0407 30.3642 11.2861ZM39.4985 7.11572C39.4985 7.13265 39.4964 7.15169 39.4922 7.17285C39.4922 7.18978 39.49 7.20882 39.4858 7.22998C39.4816 7.25114 39.4752 7.27441 39.4668 7.2998C39.4625 7.3252 39.4562 7.3527 39.4477 7.38232L37.499 12.8096C37.4821 12.8561 37.4588 12.8942 37.4292 12.9238C37.4038 12.9535 37.3636 12.9767 37.3086 12.9937C37.2536 13.0106 37.1837 13.0212 37.0991 13.0254C37.0145 13.0339 36.9087 13.0381 36.7817 13.0381C36.6548 13.0381 36.549 13.0339 36.4643 13.0254C36.3797 13.0169 36.3099 13.0042 36.2549 12.9873C36.2041 12.9704 36.1639 12.9471 36.1342 12.9175C36.1046 12.8879 36.0813 12.8519 36.0644 12.8096L34.122 7.38232C34.1051 7.33154 34.0903 7.28711 34.0776 7.24902C34.0691 7.21094 34.0628 7.18343 34.0586 7.1665C34.0586 7.14535 34.0586 7.12842 34.0586 7.11572C34.0586 7.08187 34.067 7.05225 34.084 7.02686C34.1009 7.00146 34.1284 6.98242 34.1665 6.96973C34.2088 6.9528 34.2617 6.94222 34.3252 6.93799C34.3929 6.93376 34.4754 6.93164 34.5727 6.93164C34.6954 6.93164 34.7928 6.93587 34.8647 6.94434C34.9409 6.94857 34.998 6.95915 35.0361 6.97607C35.0784 6.993 35.108 7.01416 35.125 7.03955C35.1461 7.06494 35.1652 7.09668 35.1821 7.13477L36.7944 11.8447L36.8198 11.9209L36.8388 11.8447L38.4321 7.13477C38.4406 7.09668 38.4554 7.06494 38.4765 7.03955C38.4977 7.01416 38.5273 6.993 38.5654 6.97607C38.6077 6.95915 38.6627 6.94857 38.7304 6.94434C38.8024 6.93587 38.8955 6.93164 39.0097 6.93164C39.1071 6.93164 39.1875 6.93376 39.2509 6.93799C39.3144 6.94222 39.3631 6.9528 39.3969 6.96973C39.435 6.98665 39.4604 7.00781 39.4731 7.0332C39.49 7.05436 39.4985 7.08187 39.4985 7.11572ZM45.8906 9.92139C45.8906 10.3869 45.8292 10.8164 45.7065 11.21C45.5838 11.5993 45.3997 11.9357 45.1543 12.2192C44.9131 12.5028 44.6084 12.7249 44.2402 12.8857C43.8763 13.0423 43.4531 13.1206 42.9707 13.1206C42.5009 13.1206 42.0905 13.0508 41.7392 12.9111C41.3922 12.7715 41.1023 12.5684 40.8696 12.3018C40.6369 12.0352 40.4633 11.7114 40.3491 11.3306C40.2348 10.9497 40.1777 10.5181 40.1777 10.0356C40.1777 9.57015 40.2369 9.14274 40.3554 8.75342C40.4782 8.35986 40.6601 8.02132 40.9013 7.73779C41.1468 7.45426 41.4515 7.23421 41.8154 7.07764C42.1793 6.92106 42.6046 6.84277 43.0913 6.84277C43.561 6.84277 43.9694 6.9126 44.3164 7.05225C44.6676 7.19189 44.9596 7.39502 45.1924 7.66162C45.4251 7.92822 45.5986 8.25195 45.7129 8.63281C45.8313 9.01367 45.8906 9.4432 45.8906 9.92139ZM44.7861 9.99121C44.7861 9.68229 44.7565 9.3903 44.6972 9.11523C44.6422 8.84017 44.5491 8.59896 44.4179 8.3916C44.2868 8.18424 44.109 8.02132 43.8847 7.90283C43.6605 7.78011 43.3812 7.71875 43.0468 7.71875C42.7379 7.71875 42.4713 7.77376 42.247 7.88379C42.027 7.99382 41.845 8.15039 41.7011 8.35352C41.5573 8.55241 41.4494 8.78939 41.3774 9.06445C41.3097 9.33952 41.2758 9.63997 41.2758 9.96582C41.2758 10.279 41.3034 10.5731 41.3584 10.8481C41.4176 11.1232 41.5128 11.3644 41.644 11.5718C41.7794 11.7749 41.9593 11.9378 42.1836 12.0605C42.4078 12.179 42.6871 12.2383 43.0215 12.2383C43.3261 12.2383 43.5906 12.1833 43.8149 12.0732C44.0392 11.9632 44.2233 11.8088 44.3672 11.6099C44.511 11.411 44.6168 11.174 44.6845 10.8989C44.7522 10.6239 44.7861 10.3213 44.7861 9.99121ZM52.7461 9.92139C52.7461 10.3869 52.6847 10.8164 52.562 11.21C52.4393 11.5993 52.2552 11.9357 52.0097 12.2192C51.7685 12.5028 51.4638 12.7249 51.0957 12.8857C50.7317 13.0423 50.3086 13.1206 49.8261 13.1206C49.3564 13.1206 48.9459 13.0508 48.5947 12.9111C48.2477 12.7715 47.9578 12.5684 47.7251 12.3018C47.4923 12.0352 47.3188 11.7114 47.2046 11.3306C47.0903 10.9497 47.0332 10.5181 47.0332 10.0356C47.0332 9.57015 47.0924 9.14274 47.2109 8.75342C47.3336 8.35986 47.5156 8.02132 47.7568 7.73779C48.0022 7.45426 48.3069 7.23421 48.6709 7.07764C49.0348 6.92106 49.4601 6.84277 49.9467 6.84277C50.4165 6.84277 50.8248 6.9126 51.1718 7.05225C51.5231 7.19189 51.8151 7.39502 52.0478 7.66162C52.2806 7.92822 52.4541 8.25195 52.5683 8.63281C52.6868 9.01367 52.7461 9.4432 52.7461 9.92139ZM51.6416 9.99121C51.6416 9.68229 51.6119 9.3903 51.5527 9.11523C51.4977 8.84017 51.4046 8.59896 51.2734 8.3916C51.1422 8.18424 50.9645 8.02132 50.7402 7.90283C50.5159 7.78011 50.2366 7.71875 49.9023 7.71875C49.5934 7.71875 49.3268 7.77376 49.1025 7.88379C48.8825 7.99382 48.7005 8.15039 48.5566 8.35352C48.4127 8.55241 48.3048 8.78939 48.2329 9.06445C48.1652 9.33952 48.1313 9.63997 48.1313 9.96582C48.1313 10.279 48.1588 10.5731 48.2138 10.8481C48.2731 11.1232 48.3683 11.3644 48.4995 11.5718C48.6349 11.7749 48.8147 11.9378 49.039 12.0605C49.2633 12.179 49.5426 12.2383 49.8769 12.2383C50.1816 12.2383 50.4461 12.1833 50.6704 12.0732C50.8947 11.9632 51.0787 11.8088 51.2226 11.6099C51.3665 11.411 51.4723 11.174 51.54 10.8989C51.6077 10.6239 51.6416 10.3213 51.6416 9.99121ZM57.6274 7.50293C57.6274 7.59603 57.6253 7.67432 57.6211 7.73779C57.6168 7.80127 57.6084 7.85205 57.5957 7.89014C57.583 7.92399 57.5661 7.9515 57.5449 7.97266C57.528 7.98958 57.5026 7.99805 57.4687 7.99805C57.4349 7.99805 57.3925 7.98958 57.3418 7.97266C57.2952 7.9515 57.2402 7.93245 57.1767 7.91553C57.1175 7.89437 57.0498 7.87533 56.9736 7.8584C56.8974 7.84147 56.8149 7.83301 56.726 7.83301C56.6202 7.83301 56.5166 7.85417 56.415 7.89648C56.3134 7.9388 56.2055 8.00863 56.0913 8.10596C55.9813 8.20329 55.8649 8.33236 55.7422 8.49316C55.6194 8.65397 55.484 8.85075 55.3359 9.0835V12.8413C55.3359 12.8752 55.3274 12.9048 55.3105 12.9302C55.2936 12.9513 55.2661 12.9704 55.228 12.9873C55.1899 13.0042 55.137 13.0169 55.0693 13.0254C55.0016 13.0339 54.9148 13.0381 54.8091 13.0381C54.7075 13.0381 54.6229 13.0339 54.5551 13.0254C54.4874 13.0169 54.4324 13.0042 54.3901 12.9873C54.352 12.9704 54.3245 12.9513 54.3076 12.9302C54.2949 12.9048 54.2885 12.8752 54.2885 12.8413V7.12842C54.2885 7.09456 54.2949 7.06706 54.3076 7.0459C54.3203 7.02051 54.3457 6.99935 54.3838 6.98242C54.4218 6.96126 54.4705 6.94857 54.5298 6.94434C54.589 6.93587 54.6673 6.93164 54.7646 6.93164C54.8577 6.93164 54.9339 6.93587 54.9931 6.94434C55.0566 6.94857 55.1053 6.96126 55.1391 6.98242C55.173 6.99935 55.1963 7.02051 55.209 7.0459C55.2259 7.06706 55.2343 7.09456 55.2343 7.12842V7.95996C55.3909 7.73145 55.5369 7.54525 55.6723 7.40137C55.812 7.25749 55.9432 7.14535 56.0659 7.06494C56.1886 6.98031 56.3092 6.92318 56.4277 6.89355C56.5504 6.8597 56.6731 6.84277 56.7959 6.84277C56.8509 6.84277 56.9122 6.84701 56.9799 6.85547C57.0519 6.8597 57.1259 6.87028 57.2021 6.88721C57.2783 6.90413 57.346 6.92318 57.4052 6.94434C57.4687 6.96549 57.5132 6.98665 57.5385 7.00781C57.5639 7.02897 57.5809 7.05013 57.5893 7.07129C57.5978 7.08822 57.6041 7.11149 57.6084 7.14111C57.6168 7.17074 57.6211 7.21517 57.6211 7.27441C57.6253 7.32943 57.6274 7.4056 57.6274 7.50293Z" fill="black"/>
</svg>
